<svg xmlns="http://www.w3.org/2000/svg" xmlns:xlink="http://www.w3.org/1999/xlink" width="500" zoomAndPan="magnify" viewBox="0 0 375 149.999998" height="200" preserveAspectRatio="xMidYMid meet" version="1.0"><defs><g/><clipPath id="348043a038"><path d="M 1 47 L 60 47 L 60 112.6875 L 1 112.6875 Z M 1 47 " clip-rule="nonzero"/></clipPath><clipPath id="37a4dcea90"><path d="M 287.570312 98.765625 L 341.570312 98.765625 L 341.570312 103.265625 L 287.570312 103.265625 Z M 287.570312 98.765625 " clip-rule="nonzero"/></clipPath><clipPath id="b260ca7c3c"><path d="M 91.695312 98.765625 L 145.695312 98.765625 L 145.695312 103.265625 L 91.695312 103.265625 Z M 91.695312 98.765625 " clip-rule="nonzero"/></clipPath></defs><g clip-path="url(#348043a038)"><path fill="#ffffff" d="M 58.351562 58.539062 C 57 53.988281 53.378906 50.15625 48.664062 48.285156 C 42.742188 45.933594 36.042969 47.125 31.175781 51.390625 C 30.976562 51.5625 30.777344 51.730469 30.574219 51.898438 C 20.839844 47.289062 12.945312 46.933594 7.675781 50.890625 C 1.722656 55.359375 0.0273438 64.585938 2.628906 78.3125 C 4.867188 90.113281 8.0625 99.238281 12.125 105.441406 C 14.433594 108.960938 18.003906 112.722656 21.113281 112.722656 C 22.746094 112.722656 28.074219 111.875 28.074219 100.960938 C 28.074219 96.429688 29.304688 94.101562 29.953125 93.316406 C 30.621094 93.84375 31.839844 95.742188 31.839844 100.867188 C 31.839844 111.105469 36.089844 112.507812 37.390625 112.695312 C 37.507812 112.710938 37.628906 112.71875 37.746094 112.71875 L 37.816406 112.71875 C 41.695312 112.71875 45.285156 110.558594 48.492188 106.296875 C 57.199219 94.707031 61.5 69.152344 58.351562 58.539062 Z M 58.351562 58.539062 " fill-opacity="1" fill-rule="nonzero"/></g><path fill="#efedee" d="M 27.941406 87.886719 C 27.691406 87.6875 27.410156 87.546875 27.105469 87.460938 C 26.800781 87.371094 26.488281 87.34375 26.171875 87.378906 C 25.855469 87.414062 25.558594 87.507812 25.28125 87.65625 C 25 87.808594 24.757812 88.007812 24.558594 88.253906 C 23.828125 89.140625 22.125 91.816406 22.125 97.445312 C 22.125 106.097656 18.660156 106.769531 17.597656 106.769531 C 17.042969 106.769531 16.273438 106.453125 15.390625 105.828125 C 17.660156 108.761719 19.890625 110.285156 21.113281 110.285156 C 22.175781 110.285156 25.640625 109.613281 25.640625 100.960938 C 25.640625 95.332031 27.339844 92.65625 28.074219 91.769531 L 29.523438 90.003906 C 29.164062 89.171875 28.636719 88.464844 27.941406 87.886719 Z M 27.941406 87.886719 " fill-opacity="1" fill-rule="nonzero"/><path fill="#efedee" d="M 56.015625 59.230469 C 55.1875 56.425781 53.3125 53.941406 50.792969 52.179688 C 51.550781 53.269531 52.121094 54.445312 52.5 55.714844 C 55.4375 65.609375 51.210938 90.433594 43.027344 101.316406 C 40.507812 104.667969 37.800781 106.488281 34.972656 106.738281 C 35.207031 107.589844 35.574219 108.375 36.082031 109.097656 C 36.808594 110.082031 37.53125 110.253906 37.734375 110.28125 C 37.742188 110.285156 37.753906 110.285156 37.765625 110.285156 L 37.816406 110.285156 C 40.886719 110.285156 43.824219 108.449219 46.542969 104.832031 C 54.726562 93.949219 58.953125 69.125 56.015625 59.230469 Z M 56.015625 59.230469 " fill-opacity="1" fill-rule="nonzero"/><path fill="#000000" d="M 56.601562 59.058594 C 55.410156 55.039062 52.191406 51.644531 47.992188 49.980469 C 42.710938 47.882812 36.726562 48.949219 32.375 52.761719 C 31.835938 53.234375 31.308594 53.652344 30.796875 54.027344 C 26.320312 51.800781 22.21875 50.484375 18.605469 50.109375 C 14.605469 49.695312 11.296875 50.449219 8.769531 52.347656 C 6.179688 54.292969 4.484375 57.386719 3.730469 61.554688 C 2.941406 65.886719 3.175781 71.410156 4.417969 77.96875 C 6.582031 89.371094 9.773438 98.523438 13.652344 104.441406 C 16.574219 108.898438 19.503906 110.894531 21.113281 110.894531 C 21.945312 110.894531 23.515625 110.59375 24.714844 108.582031 C 25.734375 106.875 26.253906 104.308594 26.253906 100.960938 C 26.253906 97.164062 27.050781 94.785156 27.71875 93.457031 C 28.527344 91.851562 29.386719 91.328125 29.675781 91.328125 C 31.15625 91.328125 33.660156 93.335938 33.660156 100.863281 C 33.660156 110.050781 37.242188 110.828125 37.648438 110.886719 C 37.683594 110.890625 37.722656 110.894531 37.757812 110.894531 C 41.054688 110.914062 44.175781 109 47.03125 105.199219 C 55.304688 94.191406 59.574219 69.074219 56.601562 59.058594 Z M 54.472656 81.3125 C 52.632812 90.9375 49.445312 99.289062 45.734375 104.222656 C 43.226562 107.558594 40.574219 109.257812 37.851562 109.273438 C 37.578125 109.179688 35.28125 108.140625 35.28125 100.867188 C 35.28125 90.246094 30.609375 89.707031 29.671875 89.707031 C 28.492188 89.707031 27.222656 90.835938 26.269531 92.726562 C 25.519531 94.214844 24.628906 96.847656 24.628906 100.960938 C 24.628906 107.089844 22.8125 109.273438 21.113281 109.273438 C 20.617188 109.273438 18.121094 108.300781 15.007812 103.550781 C 12.382812 99.546875 8.695312 91.808594 6.011719 77.667969 C 3.707031 65.515625 4.996094 57.207031 9.742188 53.644531 C 11.535156 52.300781 13.835938 51.632812 16.558594 51.632812 C 20.128906 51.632812 24.421875 52.785156 29.222656 55.066406 C 28.023438 55.792969 26.753906 56.351562 25.410156 56.738281 C 23.667969 57.222656 22.5625 57.132812 22.539062 57.132812 C 22.316406 57.113281 22.121094 57.171875 21.949219 57.316406 C 21.777344 57.457031 21.679688 57.636719 21.660156 57.859375 C 21.636719 58.082031 21.695312 58.277344 21.835938 58.453125 C 21.976562 58.625 22.160156 58.722656 22.378906 58.746094 C 22.585938 58.765625 27.492188 59.195312 33.445312 53.980469 C 37.277344 50.625 42.75 49.644531 47.394531 51.484375 C 51.132812 52.96875 53.996094 55.972656 55.046875 59.515625 C 56.398438 64.066406 56.175781 72.417969 54.472656 81.3125 Z M 54.472656 81.3125 " fill-opacity="1" fill-rule="nonzero"/><path fill="#000000" d="M 25.410156 68.066406 C 25.046875 68.066406 24.796875 67.898438 24.660156 67.5625 C 24.515625 67.210938 24.324219 66.886719 24.082031 66.59375 C 23.84375 66.296875 23.5625 66.042969 23.25 65.832031 C 22.933594 65.621094 22.59375 65.457031 22.226562 65.347656 C 21.863281 65.238281 21.492188 65.179688 21.113281 65.179688 C 20.730469 65.179688 20.359375 65.238281 19.996094 65.347656 C 19.628906 65.457031 19.289062 65.621094 18.972656 65.832031 C 18.660156 66.042969 18.378906 66.296875 18.140625 66.59375 C 17.898438 66.886719 17.707031 67.210938 17.5625 67.5625 C 17.476562 67.769531 17.332031 67.914062 17.125 67.996094 C 16.917969 68.082031 16.714844 68.082031 16.507812 67.996094 C 16.304688 67.914062 16.15625 67.769531 16.070312 67.5625 C 15.984375 67.359375 15.980469 67.15625 16.0625 66.949219 C 16.265625 66.445312 16.542969 65.988281 16.882812 65.566406 C 17.226562 65.148438 17.621094 64.785156 18.070312 64.484375 C 18.519531 64.183594 19.003906 63.953125 19.523438 63.796875 C 20.039062 63.636719 20.570312 63.558594 21.113281 63.558594 C 21.652344 63.558594 22.183594 63.636719 22.699219 63.796875 C 23.21875 63.953125 23.703125 64.183594 24.152344 64.484375 C 24.601562 64.785156 24.996094 65.148438 25.339844 65.566406 C 25.683594 65.988281 25.957031 66.445312 26.160156 66.949219 C 26.210938 67.074219 26.230469 67.203125 26.21875 67.335938 C 26.203125 67.472656 26.160156 67.59375 26.085938 67.707031 C 26.007812 67.820312 25.910156 67.910156 25.792969 67.972656 C 25.671875 68.035156 25.546875 68.066406 25.410156 68.066406 Z M 25.410156 68.066406 " fill-opacity="1" fill-rule="nonzero"/><path fill="#000000" d="M 35.414062 68.066406 C 35.28125 68.066406 35.152344 68.035156 35.035156 67.972656 C 34.914062 67.910156 34.816406 67.820312 34.742188 67.707031 C 34.667969 67.59375 34.621094 67.472656 34.609375 67.335938 C 34.59375 67.203125 34.613281 67.074219 34.664062 66.949219 C 34.871094 66.445312 35.144531 65.988281 35.484375 65.566406 C 35.828125 65.148438 36.222656 64.785156 36.671875 64.484375 C 37.125 64.183594 37.605469 63.953125 38.125 63.796875 C 38.644531 63.636719 39.171875 63.558594 39.714844 63.558594 C 40.253906 63.558594 40.785156 63.636719 41.304688 63.796875 C 41.820312 63.953125 42.304688 64.183594 42.753906 64.484375 C 43.203125 64.785156 43.601562 65.148438 43.941406 65.566406 C 44.285156 65.988281 44.558594 66.445312 44.761719 66.949219 C 44.84375 67.15625 44.84375 67.359375 44.753906 67.5625 C 44.667969 67.769531 44.523438 67.914062 44.316406 67.996094 C 44.113281 68.082031 43.90625 68.082031 43.699219 67.996094 C 43.496094 67.914062 43.347656 67.769531 43.261719 67.5625 C 43.117188 67.210938 42.925781 66.886719 42.6875 66.59375 C 42.445312 66.296875 42.167969 66.042969 41.851562 65.832031 C 41.535156 65.621094 41.195312 65.457031 40.832031 65.347656 C 40.46875 65.238281 40.09375 65.179688 39.714844 65.179688 C 39.332031 65.179688 38.960938 65.238281 38.597656 65.347656 C 38.234375 65.457031 37.894531 65.621094 37.578125 65.832031 C 37.261719 66.042969 36.984375 66.296875 36.742188 66.59375 C 36.503906 66.886719 36.308594 67.210938 36.164062 67.5625 C 36.027344 67.898438 35.777344 68.066406 35.414062 68.066406 Z M 35.414062 68.066406 " fill-opacity="1" fill-rule="nonzero"/><path fill="#000000" d="M 30.414062 81.207031 C 28.53125 81.207031 26.738281 80.8125 25.027344 80.027344 C 23.320312 79.242188 21.855469 78.132812 20.632812 76.703125 C 20.484375 76.535156 20.421875 76.335938 20.4375 76.113281 C 20.457031 75.890625 20.550781 75.707031 20.71875 75.558594 C 20.890625 75.414062 21.085938 75.351562 21.308594 75.367188 C 21.535156 75.382812 21.71875 75.476562 21.863281 75.648438 C 22.128906 75.957031 22.40625 76.246094 22.699219 76.527344 C 22.996094 76.804688 23.304688 77.0625 23.628906 77.308594 C 23.949219 77.550781 24.285156 77.777344 24.632812 77.984375 C 24.980469 78.195312 25.339844 78.382812 25.707031 78.550781 C 26.074219 78.722656 26.449219 78.871094 26.835938 79 C 27.21875 79.128906 27.609375 79.234375 28.003906 79.324219 C 28.398438 79.410156 28.796875 79.472656 29.199219 79.519531 C 29.605469 79.5625 30.007812 79.582031 30.414062 79.582031 C 30.816406 79.582031 31.222656 79.5625 31.625 79.519531 C 32.027344 79.472656 32.425781 79.410156 32.820312 79.324219 C 33.214844 79.234375 33.605469 79.128906 33.988281 79 C 34.375 78.871094 34.75 78.722656 35.117188 78.550781 C 35.484375 78.382812 35.84375 78.195312 36.191406 77.984375 C 36.539062 77.777344 36.875 77.550781 37.195312 77.308594 C 37.519531 77.0625 37.828125 76.804688 38.125 76.527344 C 38.417969 76.246094 38.699219 75.957031 38.960938 75.648438 C 39.105469 75.476562 39.292969 75.382812 39.515625 75.367188 C 39.738281 75.351562 39.933594 75.414062 40.105469 75.558594 C 40.273438 75.707031 40.367188 75.890625 40.386719 76.113281 C 40.402344 76.335938 40.339844 76.535156 40.191406 76.703125 C 38.96875 78.132812 37.503906 79.238281 35.796875 80.027344 C 34.085938 80.8125 32.292969 81.207031 30.414062 81.207031 Z M 30.414062 81.207031 " fill-opacity="1" fill-rule="nonzero"/><path fill="#f58f8d" d="M 46.585938 73.449219 C 46.585938 73.808594 46.515625 74.15625 46.378906 74.492188 C 46.242188 74.828125 46.042969 75.121094 45.789062 75.378906 C 45.53125 75.632812 45.238281 75.828125 44.902344 75.96875 C 44.570312 76.105469 44.21875 76.175781 43.859375 76.175781 C 43.496094 76.175781 43.148438 76.105469 42.816406 75.96875 C 42.480469 75.828125 42.1875 75.632812 41.929688 75.378906 C 41.675781 75.121094 41.476562 74.828125 41.339844 74.492188 C 41.199219 74.15625 41.132812 73.808594 41.132812 73.449219 C 41.132812 73.085938 41.199219 72.738281 41.339844 72.40625 C 41.476562 72.070312 41.675781 71.773438 41.929688 71.519531 C 42.1875 71.261719 42.480469 71.066406 42.816406 70.929688 C 43.148438 70.789062 43.496094 70.71875 43.859375 70.71875 C 44.21875 70.71875 44.570312 70.789062 44.902344 70.929688 C 45.238281 71.066406 45.53125 71.261719 45.789062 71.519531 C 46.042969 71.773438 46.242188 72.070312 46.378906 72.40625 C 46.515625 72.738281 46.585938 73.085938 46.585938 73.449219 Z M 46.585938 73.449219 " fill-opacity="1" fill-rule="nonzero"/><path fill="#f58f8d" d="M 19.695312 73.449219 C 19.695312 73.808594 19.625 74.15625 19.488281 74.492188 C 19.347656 74.828125 19.152344 75.121094 18.894531 75.378906 C 18.640625 75.632812 18.34375 75.828125 18.011719 75.96875 C 17.675781 76.105469 17.328125 76.175781 16.964844 76.175781 C 16.605469 76.175781 16.257812 76.105469 15.921875 75.96875 C 15.589844 75.828125 15.292969 75.632812 15.039062 75.378906 C 14.78125 75.121094 14.585938 74.828125 14.445312 74.492188 C 14.308594 74.15625 14.238281 73.808594 14.238281 73.449219 C 14.238281 73.085938 14.308594 72.738281 14.445312 72.40625 C 14.585938 72.070312 14.78125 71.773438 15.039062 71.519531 C 15.292969 71.261719 15.589844 71.066406 15.921875 70.929688 C 16.257812 70.789062 16.605469 70.71875 16.964844 70.71875 C 17.328125 70.71875 17.675781 70.789062 18.011719 70.929688 C 18.34375 71.066406 18.640625 71.261719 18.894531 71.519531 C 19.152344 71.773438 19.347656 72.070312 19.488281 72.40625 C 19.625 72.738281 19.695312 73.085938 19.695312 73.449219 Z M 19.695312 73.449219 " fill-opacity="1" fill-rule="nonzero"/><g fill="#000000" fill-opacity="1"><g transform="translate(61.687558, 79.085385)"><g><path d="M 3.027344 0 L 8.753906 0 L 8.753906 -8.679688 L 17.902344 -8.679688 L 17.902344 -13.722656 L 8.753906 -13.722656 L 8.753906 -20.027344 L 18.839844 -20.027344 L 18.839844 -25.214844 L 3.027344 -25.214844 Z M 3.027344 0 "/></g></g></g><g fill="#000000" fill-opacity="1"><g transform="translate(82.106186, 79.085385)"><g><path d="M 9.042969 0.359375 C 11.851562 0.359375 14.15625 -0.539062 15.777344 -2.199219 L 16.390625 0 L 20.460938 0 L 20.460938 -11.382812 C 20.460938 -16.390625 17.074219 -19.417969 11.417969 -19.417969 C 6.59375 -19.417969 3.421875 -17.109375 2.738281 -13.003906 L 7.996094 -13.003906 C 8.320312 -14.335938 9.691406 -15.238281 11.457031 -15.238281 C 13.617188 -15.238281 15.09375 -14.011719 15.09375 -12.140625 L 15.09375 -11.273438 L 8.25 -11.273438 C 4.324219 -11.273438 1.800781 -9.003906 1.800781 -5.511719 C 1.800781 -1.875 4.574219 0.359375 9.042969 0.359375 Z M 7.203125 -5.726562 C 7.203125 -7.023438 8.285156 -7.851562 9.941406 -7.851562 L 15.128906 -7.851562 C 15.019531 -5.296875 13.039062 -3.566406 10.300781 -3.566406 C 8.429688 -3.566406 7.203125 -4.429688 7.203125 -5.726562 Z M 7.203125 -5.726562 "/></g></g></g><g fill="#000000" fill-opacity="1"><g transform="translate(104.937606, 79.085385)"><g><path d="M 2.738281 0 L 8.214844 0 L 8.214844 -10.230469 C 8.214844 -12.96875 9.726562 -14.734375 12.066406 -14.734375 C 14.335938 -14.734375 15.742188 -13.039062 15.742188 -10.375 L 15.742188 0 L 21.144531 0 L 21.144531 -10.230469 C 21.144531 -12.96875 22.65625 -14.734375 25 -14.734375 C 27.269531 -14.734375 28.675781 -13.039062 28.675781 -10.375 L 28.675781 0 L 34.148438 0 L 34.148438 -11.023438 C 34.148438 -16.210938 31.050781 -19.417969 26.222656 -19.417969 C 23.34375 -19.417969 20.964844 -18.300781 19.417969 -16.316406 C 18.082031 -18.335938 15.886719 -19.417969 13.183594 -19.417969 C 10.769531 -19.417969 8.71875 -18.585938 7.347656 -16.964844 L 6.808594 -18.910156 L 2.738281 -18.910156 Z M 2.738281 0 "/></g></g></g><g fill="#000000" fill-opacity="1"><g transform="translate(141.453469, 79.085385)"><g><path d="M 2.738281 0 L 8.214844 0 L 8.214844 -18.910156 L 2.738281 -18.910156 Z M 1.945312 -25.035156 C 1.945312 -23.019531 3.386719 -21.613281 5.476562 -21.613281 C 7.566406 -21.613281 9.003906 -23.019531 9.003906 -25.035156 C 9.003906 -27.054688 7.566406 -28.457031 5.476562 -28.457031 C 3.386719 -28.457031 1.945312 -27.054688 1.945312 -25.035156 Z M 1.945312 -25.035156 "/></g></g></g><g fill="#000000" fill-opacity="1"><g transform="translate(152.401023, 79.085385)"><g><path d="M 2.738281 0 L 8.214844 0 L 8.214844 -26.65625 L 2.738281 -26.65625 Z M 2.738281 0 "/></g></g></g><g fill="#000000" fill-opacity="1"><g transform="translate(163.348578, 79.085385)"><g><path d="M 2.808594 7.203125 L 5.367188 7.203125 C 9.761719 7.203125 11.597656 6.125 13.148438 2.234375 L 21.578125 -18.910156 L 15.707031 -18.910156 L 13.183594 -12.03125 L 11.457031 -7.203125 L 6.375 -18.910156 L 0.324219 -18.910156 L 8.824219 -0.613281 L 8.609375 0.0351562 C 7.960938 1.910156 7.203125 2.484375 4.972656 2.484375 L 2.808594 2.484375 Z M 2.808594 7.203125 "/></g></g></g><g fill="#000000" fill-opacity="1"><g transform="translate(185.207674, 79.085385)"><g/></g></g><g fill="#000000" fill-opacity="1"><g transform="translate(193.670419, 79.085385)"><g><path d="M 3.027344 0 L 13.003906 0 C 20.964844 0 26.296875 -5.078125 26.296875 -12.609375 C 26.296875 -20.101562 20.964844 -25.214844 13.003906 -25.214844 L 3.027344 -25.214844 Z M 8.753906 -5.257812 L 8.753906 -19.957031 L 12.824219 -19.957031 C 17.363281 -19.957031 20.425781 -17.039062 20.425781 -12.609375 C 20.425781 -8.175781 17.363281 -5.257812 12.894531 -5.257812 Z M 8.753906 -5.257812 "/></g></g></g><g fill="#000000" fill-opacity="1"><g transform="translate(221.471446, 79.085385)"><g><path d="M 11.671875 0.503906 C 16.316406 0.503906 19.992188 -1.875 21.648438 -5.871094 L 16.101562 -5.871094 C 15.203125 -4.609375 13.582031 -3.890625 11.78125 -3.890625 C 9.292969 -3.890625 7.347656 -5.296875 6.84375 -7.890625 L 22.007812 -7.890625 C 22.332031 -14.804688 18.226562 -19.417969 11.742188 -19.417969 C 5.621094 -19.417969 1.40625 -15.34375 1.40625 -9.472656 C 1.40625 -3.566406 5.582031 0.503906 11.671875 0.503906 Z M 6.878906 -11.347656 C 7.492188 -13.652344 9.367188 -15.058594 11.78125 -15.058594 C 14.300781 -15.058594 16.101562 -13.652344 16.714844 -11.347656 Z M 6.878906 -11.347656 "/></g></g></g><g fill="#000000" fill-opacity="1"><g transform="translate(244.843039, 79.085385)"><g><path d="M 2.738281 0 L 8.214844 0 L 8.214844 -9.90625 C 8.214844 -12.894531 9.871094 -14.734375 12.390625 -14.734375 C 14.734375 -14.734375 16.136719 -13.074219 16.136719 -10.300781 L 16.136719 0 L 21.613281 0 L 21.613281 -10.878906 C 21.613281 -16.101562 18.625 -19.417969 13.6875 -19.417969 C 11.167969 -19.417969 8.898438 -18.550781 7.382812 -16.785156 L 6.808594 -18.910156 L 2.738281 -18.910156 Z M 2.738281 0 "/></g></g></g><g fill="#000000" fill-opacity="1"><g transform="translate(268.826844, 79.085385)"><g><path d="M 11.851562 0 L 15.308594 0 L 15.308594 -4.753906 L 13.039062 -4.753906 C 10.878906 -4.753906 9.871094 -5.800781 9.871094 -7.996094 L 9.871094 -14.445312 L 15.058594 -14.445312 L 15.058594 -18.910156 L 9.871094 -18.910156 L 9.871094 -23.8125 L 5.621094 -23.8125 L 5.296875 -21.363281 C 5.007812 -19.417969 4.464844 -18.910156 2.414062 -18.910156 L 0.71875 -18.910156 L 0.71875 -14.445312 L 4.394531 -14.445312 L 4.394531 -7.167969 C 4.394531 -2.558594 7.058594 0 11.851562 0 Z M 11.851562 0 "/></g></g></g><g fill="#000000" fill-opacity="1"><g transform="translate(285.644302, 79.085385)"><g><path d="M 2.738281 0 L 8.214844 0 L 8.214844 -18.910156 L 2.738281 -18.910156 Z M 1.945312 -25.035156 C 1.945312 -23.019531 3.386719 -21.613281 5.476562 -21.613281 C 7.566406 -21.613281 9.003906 -23.019531 9.003906 -25.035156 C 9.003906 -27.054688 7.566406 -28.457031 5.476562 -28.457031 C 3.386719 -28.457031 1.945312 -27.054688 1.945312 -25.035156 Z M 1.945312 -25.035156 "/></g></g></g><g fill="#000000" fill-opacity="1"><g transform="translate(296.591857, 79.085385)"><g><path d="M 10.015625 0.503906 C 15.128906 0.503906 18.226562 -1.730469 18.226562 -5.332031 C 18.226562 -8.429688 15.921875 -10.410156 11.238281 -11.347656 C 7.996094 -11.996094 6.988281 -12.535156 6.988281 -13.6875 C 6.988281 -14.804688 7.996094 -15.453125 9.617188 -15.453125 C 11.457031 -15.453125 12.570312 -14.625 12.679688 -13.183594 L 17.902344 -13.183594 C 17.652344 -17.183594 14.695312 -19.417969 9.652344 -19.417969 C 4.574219 -19.417969 1.691406 -17.363281 1.691406 -13.6875 C 1.691406 -10.554688 3.855469 -8.679688 8.679688 -7.816406 C 11.597656 -7.3125 12.824219 -6.554688 12.824219 -5.367188 C 12.824219 -4.25 11.816406 -3.566406 10.085938 -3.566406 C 8.070312 -3.566406 6.84375 -4.539062 6.808594 -6.085938 L 1.441406 -6.085938 C 1.441406 -2.125 4.828125 0.503906 10.015625 0.503906 Z M 10.015625 0.503906 "/></g></g></g><g fill="#000000" fill-opacity="1"><g transform="translate(316.290251, 79.085385)"><g><path d="M 11.851562 0 L 15.308594 0 L 15.308594 -4.753906 L 13.039062 -4.753906 C 10.878906 -4.753906 9.871094 -5.800781 9.871094 -7.996094 L 9.871094 -14.445312 L 15.058594 -14.445312 L 15.058594 -18.910156 L 9.871094 -18.910156 L 9.871094 -23.8125 L 5.621094 -23.8125 L 5.296875 -21.363281 C 5.007812 -19.417969 4.464844 -18.910156 2.414062 -18.910156 L 0.71875 -18.910156 L 0.71875 -14.445312 L 4.394531 -14.445312 L 4.394531 -7.167969 C 4.394531 -2.558594 7.058594 0 11.851562 0 Z M 11.851562 0 "/></g></g></g><g fill="#000000" fill-opacity="1"><g transform="translate(333.107709, 79.085385)"><g><path d="M 2.738281 0 L 8.214844 0 L 8.214844 -8.355469 C 8.214844 -12.429688 10.121094 -13.941406 13.257812 -13.941406 L 15.34375 -13.941406 L 15.34375 -18.910156 L 13.292969 -18.910156 C 10.519531 -18.910156 8.753906 -18.15625 7.527344 -16.390625 L 6.808594 -18.910156 L 2.738281 -18.910156 Z M 2.738281 0 "/></g></g></g><g fill="#000000" fill-opacity="1"><g transform="translate(349.673076, 79.085385)"><g><path d="M 2.808594 7.203125 L 5.367188 7.203125 C 9.761719 7.203125 11.597656 6.125 13.148438 2.234375 L 21.578125 -18.910156 L 15.707031 -18.910156 L 13.183594 -12.03125 L 11.457031 -7.203125 L 6.375 -18.910156 L 0.324219 -18.910156 L 8.824219 -0.613281 L 8.609375 0.0351562 C 7.960938 1.910156 7.203125 2.484375 4.972656 2.484375 L 2.808594 2.484375 Z M 2.808594 7.203125 "/></g></g></g><g clip-path="url(#37a4dcea90)"><path fill="#000000" d="M 287.570312 98.78125 L 341.570312 98.78125 L 341.570312 103.25 L 287.570312 103.25 Z M 287.570312 98.78125 " fill-opacity="1" fill-rule="nonzero"/></g><g fill="#000000" fill-opacity="1"><g transform="translate(150.650362, 107.233054)"><g><path d="M 1.679688 0 L 7.21875 0 C 11.636719 0 14.597656 -2.820312 14.597656 -7 C 14.597656 -11.15625 11.636719 -13.996094 7.21875 -13.996094 L 1.679688 -13.996094 Z M 4.859375 -2.917969 L 4.859375 -11.078125 L 7.117188 -11.078125 C 9.636719 -11.078125 11.335938 -9.457031 11.335938 -7 C 11.335938 -4.539062 9.636719 -2.917969 7.160156 -2.917969 Z M 4.859375 -2.917969 "/></g></g></g><g fill="#000000" fill-opacity="1"><g transform="translate(168.344277, 107.233054)"><g><path d="M 1.679688 0 L 11.097656 0 L 11.097656 -2.699219 L 4.839844 -2.699219 L 4.839844 -5.757812 L 10.335938 -5.757812 L 10.335938 -8.417969 L 4.839844 -8.417969 L 4.839844 -11.316406 L 10.878906 -11.316406 L 10.878906 -13.996094 L 1.679688 -13.996094 Z M 1.679688 0 "/></g></g></g><g fill="#000000" fill-opacity="1"><g transform="translate(182.719498, 107.233054)"><g><path d="M 0.179688 0 L 3.578125 0 L 4.519531 -2.417969 L 10.078125 -2.417969 L 11.015625 0 L 14.417969 0 L 8.859375 -13.996094 L 5.738281 -13.996094 Z M 5.339844 -4.917969 L 7.296875 -10.039062 L 9.277344 -4.917969 Z M 5.339844 -4.917969 "/></g></g></g><g fill="#000000" fill-opacity="1"><g transform="translate(199.573738, 107.233054)"><g><path d="M 1.679688 0 L 4.859375 0 L 4.859375 -4.359375 L 6.957031 -4.359375 L 9.457031 0 L 13.136719 0 L 10.238281 -4.859375 C 11.917969 -5.597656 12.898438 -7.117188 12.898438 -9.175781 C 12.898438 -12.15625 10.855469 -13.996094 7.65625 -13.996094 L 1.679688 -13.996094 Z M 4.820312 -7.039062 L 4.820312 -11.277344 L 7.238281 -11.277344 C 8.796875 -11.277344 9.675781 -10.515625 9.675781 -9.15625 C 9.675781 -7.796875 8.796875 -7.039062 7.238281 -7.039062 Z M 4.820312 -7.039062 "/></g></g></g><g fill="#000000" fill-opacity="1"><g transform="translate(215.908186, 107.233054)"><g><path d="M 1.679688 0 L 8.257812 0 C 11.097656 0 13.015625 -1.558594 13.015625 -3.917969 C 13.015625 -5.417969 12.238281 -6.617188 10.917969 -7.199219 C 11.976562 -7.816406 12.597656 -8.917969 12.597656 -10.238281 C 12.597656 -12.535156 10.777344 -13.996094 7.9375 -13.996094 L 1.679688 -13.996094 Z M 4.820312 -2.519531 L 4.820312 -5.878906 L 7.777344 -5.878906 C 9.039062 -5.878906 9.757812 -5.257812 9.757812 -4.199219 C 9.757812 -3.140625 9.039062 -2.519531 7.777344 -2.519531 Z M 4.820312 -8.296875 L 4.820312 -11.476562 L 7.457031 -11.476562 C 8.679688 -11.476562 9.359375 -10.917969 9.359375 -9.898438 C 9.359375 -8.878906 8.679688 -8.296875 7.457031 -8.296875 Z M 4.820312 -8.296875 "/></g></g></g><g fill="#000000" fill-opacity="1"><g transform="translate(231.942754, 107.233054)"><g><path d="M 8.316406 0.28125 C 12.695312 0.28125 15.796875 -2.71875 15.796875 -7 C 15.796875 -11.277344 12.695312 -14.277344 8.316406 -14.277344 C 3.9375 -14.277344 0.859375 -11.277344 0.859375 -7 C 0.859375 -2.71875 3.9375 0.28125 8.316406 0.28125 Z M 4.097656 -7 C 4.097656 -9.519531 5.839844 -11.257812 8.316406 -11.257812 C 10.816406 -11.257812 12.535156 -9.519531 12.535156 -7 C 12.535156 -4.480469 10.816406 -2.738281 8.316406 -2.738281 C 5.839844 -2.738281 4.097656 -4.480469 4.097656 -7 Z M 4.097656 -7 "/></g></g></g><g fill="#000000" fill-opacity="1"><g transform="translate(250.856186, 107.233054)"><g><path d="M 1.679688 0 L 4.859375 0 L 4.859375 -4.359375 L 6.957031 -4.359375 L 9.457031 0 L 13.136719 0 L 10.238281 -4.859375 C 11.917969 -5.597656 12.898438 -7.117188 12.898438 -9.175781 C 12.898438 -12.15625 10.855469 -13.996094 7.65625 -13.996094 L 1.679688 -13.996094 Z M 4.820312 -7.039062 L 4.820312 -11.277344 L 7.238281 -11.277344 C 8.796875 -11.277344 9.675781 -10.515625 9.675781 -9.15625 C 9.675781 -7.796875 8.796875 -7.039062 7.238281 -7.039062 Z M 4.820312 -7.039062 "/></g></g></g><g fill="#000000" fill-opacity="1"><g transform="translate(267.190635, 107.233054)"><g><path d="M 1.679688 0 L 4.839844 0 L 4.839844 -8.578125 L 11.015625 0 L 13.714844 0 L 13.714844 -13.996094 L 10.558594 -13.996094 L 10.558594 -5.480469 L 4.378906 -13.996094 L 1.679688 -13.996094 Z M 1.679688 0 "/></g></g></g><g clip-path="url(#b260ca7c3c)"><path fill="#000000" d="M 91.695312 98.78125 L 145.695312 98.78125 L 145.695312 103.25 L 91.695312 103.25 Z M 91.695312 98.78125 " fill-opacity="1" fill-rule="nonzero"/></g></svg>